<svg width="87" height="41" viewBox="0 0 87 41" fill="none" xmlns="http://www.w3.org/2000/svg">
<path fill-rule="evenodd" clip-rule="evenodd" d="M83.111 1.64H37.8035C37.2134 1.64 36.777 1.64039 36.4423 1.77149C36.1093 1.9019 35.8862 2.15862 35.7169 2.65167C35.5477 3.14472 35.4595 3.79468 35.4148 4.76462C35.3698 5.73978 35.3696 7.0108 35.3696 8.72991V33.0901C35.3696 34.8092 35.3698 36.0802 35.4148 37.0554C35.4595 38.0254 35.5477 38.6751 35.7169 39.1685C35.8862 39.6615 36.1093 39.9182 36.4423 40.0484C36.777 40.1796 37.2134 40.18 37.8035 40.18H83.111C83.7011 40.18 84.1375 40.1796 84.4722 40.0484C84.8053 39.9182 85.0283 39.6615 85.1977 39.1685C85.3669 38.6751 85.455 38.0254 85.4997 37.0554C85.5448 36.0802 85.5449 34.8092 85.5449 33.0901V8.72991C85.5449 7.0108 85.5448 5.73978 85.4997 4.76462C85.455 3.79468 85.3669 3.14472 85.1977 2.65167C85.0283 2.15862 84.8053 1.9019 84.4722 1.77149C84.1375 1.64039 83.7011 1.64 83.111 1.64ZM55.0047 18.1858L56.1531 21.0726H60.1264L53.9942 6.41155H50.5261L44.3483 21.0726H48.2066L49.2859 18.1858H55.0047ZM50.3196 15.3446L52.2028 10.2984L54.0174 15.3446H50.3196ZM68.1416 20.4362V16.0947H72.5511V13.4807H68.1184V9.13918H65.4087V13.4807H60.9988V16.0947H65.4315V20.4362H68.1416ZM45.7263 34.1198H46.5531H46.5762V30.3011H47.9542L50.2277 34.1198H51.2382L48.8497 30.2329C49.1485 30.2102 49.4241 30.142 49.6765 30.0283C49.9293 29.9147 50.159 29.7783 50.3427 29.5965C50.5264 29.4146 50.6639 29.21 50.7789 28.96C50.8935 28.71 50.9398 28.4372 50.9398 28.1417C50.9398 27.7326 50.8708 27.3916 50.733 27.1189C50.5952 26.8234 50.4114 26.6188 50.1586 26.437C49.9062 26.2778 49.6074 26.1414 49.2631 26.0733C48.9184 26.0051 48.5282 25.9596 48.1376 25.9596H45.7263V34.1198ZM47.9998 29.5965H46.5531V26.6643H48.0461C48.3676 26.6643 48.6428 26.7097 48.8956 26.7552C49.1481 26.8006 49.355 26.8916 49.5387 27.0052C49.7224 27.1189 49.8602 27.278 49.9521 27.4598C50.0667 27.6416 50.113 27.8689 50.113 28.1417C50.113 28.6191 49.9293 28.9828 49.5619 29.2328C49.1944 29.4828 48.666 29.5965 47.9998 29.5965ZM55.5331 29.5965C55.7856 29.8238 55.9002 30.1647 55.9002 30.642H55.8775V30.8239C55.3953 30.8239 54.9129 30.8239 54.4535 30.8694C53.9942 30.8921 53.5808 30.983 53.2365 31.0967C52.8918 31.2103 52.5931 31.3922 52.3865 31.6422C52.1797 31.8695 52.065 32.2104 52.065 32.6196C52.065 32.9151 52.1337 33.1651 52.2488 33.3697C52.3865 33.5743 52.5243 33.7334 52.7081 33.8698C52.8918 33.9834 53.0755 34.0743 53.3052 34.1425C53.5349 34.2107 53.7414 34.2334 53.9483 34.2334C54.3845 34.2334 54.7523 34.1652 55.0738 34.0061C55.3953 33.847 55.6706 33.597 55.9234 33.2333H55.9465V33.2334C55.9465 33.3924 55.9465 33.5288 55.9693 33.6879C55.9925 33.847 56.0153 33.9834 56.038 34.1198H56.7502C56.727 33.9607 56.7043 33.7788 56.6815 33.5515C56.6583 33.3469 56.6583 33.1197 56.6583 32.9151V30.5511C56.6583 30.2102 56.6124 29.9374 56.4974 29.6874C56.3827 29.4374 56.2218 29.2328 56.038 29.0737C55.8543 28.9145 55.6246 28.7782 55.3722 28.71C55.1194 28.6418 54.8438 28.5963 54.5454 28.5963C54.0861 28.5963 53.6727 28.6872 53.3052 28.8236C52.9377 28.96 52.6394 29.1418 52.4097 29.3692L52.8459 29.892C53.0524 29.7101 53.2824 29.551 53.558 29.4373C53.8336 29.3237 54.132 29.2555 54.4535 29.2555C54.936 29.2555 55.2803 29.3692 55.5331 29.5965ZM54.7473 31.4561C55.0676 31.4349 55.3691 31.4149 55.6706 31.4149H55.9234V31.824C55.9234 32.074 55.9002 32.3014 55.8084 32.5059C55.7165 32.7105 55.6019 32.9151 55.4641 33.0742C55.3031 33.2333 55.1194 33.3697 54.9129 33.4606C54.706 33.5515 54.4535 33.597 54.1779 33.597C54.017 33.597 53.8792 33.597 53.7186 33.5515C53.5577 33.5061 53.443 33.4606 53.3052 33.3697C53.1674 33.2788 53.0755 33.1651 53.0068 33.0515C52.9377 32.9378 52.8918 32.756 52.8918 32.5741C52.8918 32.3241 52.9837 32.0968 53.1443 31.9604C53.3052 31.824 53.5121 31.7104 53.7877 31.6195C54.0633 31.5513 54.3617 31.4831 54.6832 31.4603C54.7047 31.4589 54.726 31.4575 54.7473 31.4561ZM59.4375 29.3692H60.976V28.6872H59.4375V27.1643H58.6562V28.6872H57.531V29.3464H58.6562V32.7105C58.6562 33.006 58.7022 33.256 58.794 33.4379C58.8859 33.6197 59.0009 33.7561 59.1387 33.8698C59.2765 33.9834 59.4371 34.0516 59.598 34.0971C59.7586 34.1425 59.9196 34.1652 60.0574 34.1652C60.2179 34.1652 60.3789 34.1425 60.5395 34.1198C60.7003 34.0971 60.838 34.0517 60.9756 34.0063L60.976 34.0061L60.9301 33.3242C60.8154 33.3924 60.7004 33.4379 60.5858 33.4606L60.5841 33.461C60.4696 33.4835 60.3555 33.5061 60.2411 33.5061C60.1264 33.5061 60.0114 33.4833 59.9196 33.4606L59.9195 33.4606C59.8277 33.4151 59.7358 33.3697 59.6671 33.3015C59.598 33.2333 59.5521 33.1424 59.5062 33.006C59.4602 32.8696 59.4375 32.7105 59.4375 32.5059V29.3692ZM62.239 34.1198H63.0199V28.7327H62.239V34.1198ZM62.9971 27.028C63.1121 26.937 63.1808 26.8006 63.1808 26.6415C63.1808 26.4824 63.1121 26.346 62.9971 26.2551C62.8824 26.1414 62.7446 26.096 62.6068 26.096C62.469 26.096 62.3309 26.1414 62.2162 26.2551C62.1012 26.346 62.0325 26.4824 62.0325 26.6415C62.0325 26.8006 62.1012 26.9143 62.2162 27.028C62.3309 27.1416 62.469 27.187 62.6068 27.187C62.7446 27.187 62.8824 27.1416 62.9971 27.028ZM65.8225 28.9708C65.8165 28.8856 65.8107 28.8031 65.799 28.7327H65.0641C65.0868 28.9145 65.11 29.1191 65.11 29.3464C65.1328 29.5737 65.1331 29.7783 65.1331 29.9147V34.1198H65.9136V31.3467C65.9136 30.983 65.9596 30.6875 66.0514 30.4147C66.1433 30.142 66.2583 29.9374 66.4193 29.7556C66.5799 29.5737 66.7404 29.4601 66.9473 29.3692C67.131 29.2782 67.3379 29.2328 67.5444 29.2328C67.82 29.2328 68.0729 29.2782 68.2566 29.3692C68.4631 29.4601 68.6009 29.5965 68.7159 29.7556C68.8306 29.9147 68.8997 30.1193 68.9456 30.3466C68.9915 30.5739 69.0143 30.8466 69.0143 31.1194V34.0971H69.7952V30.8012C69.7952 30.142 69.6346 29.5965 69.2899 29.1873C68.9456 28.7782 68.44 28.5736 67.751 28.5736C67.3607 28.5736 66.9933 28.6645 66.6489 28.8691C66.3043 29.0737 66.0514 29.3237 65.8909 29.6419H65.8681C65.8681 29.5917 65.8636 29.5371 65.8585 29.4761C65.8521 29.399 65.8449 29.3116 65.8449 29.21C65.8339 29.133 65.8281 29.0507 65.8225 28.9708ZM73.0105 35.8927C72.6199 35.6882 72.3215 35.4609 72.1146 35.1881L71.5175 35.7564C71.839 36.0973 72.2296 36.3701 72.6889 36.5519C73.1251 36.7565 73.6076 36.8474 74.1129 36.8474C74.71 36.8474 75.2153 36.7565 75.5827 36.5746C75.9502 36.3928 76.2486 36.1655 76.4782 35.8927C76.7079 35.62 76.8457 35.3245 76.9376 34.9835C77.0066 34.6653 77.0526 34.3471 77.0526 34.0516V28.71H76.2717V29.6419H76.2486C76.0189 29.301 75.7205 29.0282 75.3531 28.8464C74.9856 28.6645 74.595 28.5736 74.2047 28.5736C73.7913 28.5736 73.4007 28.6645 73.0564 28.8009C72.7117 28.9373 72.4365 29.1418 72.1837 29.3919C71.9312 29.6419 71.7475 29.9374 71.6097 30.2784C71.4719 30.6193 71.4028 30.983 71.4028 31.3694C71.4028 31.7558 71.4719 32.1195 71.6097 32.4605C71.7475 32.8014 71.9312 33.0742 72.1837 33.3242C72.4133 33.5742 72.7117 33.7561 73.0564 33.8925C73.4007 34.0289 73.7913 34.0971 74.2047 34.0971C74.595 34.0971 74.9856 34.0061 75.3762 33.8243C75.7665 33.6425 76.0648 33.3924 76.2717 33.0515H76.3177V34.0743C76.3177 34.3698 76.2717 34.6426 76.203 34.8926C76.1339 35.1654 75.9961 35.3927 75.8355 35.5745C75.6746 35.7564 75.4677 35.9155 75.1921 36.0291C74.9165 36.1428 74.595 36.1883 74.2047 36.1883C73.7913 36.1883 73.3779 36.0746 73.0105 35.8927ZM72.4133 32.1423C72.3215 31.8922 72.2755 31.6194 72.2755 31.3467C72.2755 31.0739 72.3215 30.8012 72.4133 30.5057C72.5052 30.2556 72.6199 30.0284 72.8036 29.8465C72.9873 29.6647 73.1942 29.5055 73.447 29.3919C73.6995 29.2782 73.9979 29.21 74.3194 29.21C74.6181 29.21 74.8937 29.2782 75.1465 29.3919C75.399 29.5055 75.6287 29.6647 75.8124 29.8465C75.9961 30.0284 76.1339 30.2556 76.2486 30.5057C76.3636 30.7557 76.4095 31.0285 76.4095 31.3012C76.4095 31.6195 76.3636 31.915 76.2486 32.165C76.1339 32.415 75.9961 32.6423 75.8124 32.8242C75.6287 33.006 75.399 33.1651 75.1465 33.256C74.8937 33.3697 74.6181 33.4152 74.3194 33.4152C73.9979 33.4152 73.6995 33.3697 73.447 33.256C73.1942 33.1424 72.9873 32.9833 72.8036 32.8014C72.643 32.6196 72.5052 32.3923 72.4133 32.1423Z" fill="#B8B7BA"/>
<path d="M27.8496 34.9398C27.9886 34.9398 28.1276 34.9917 28.2145 35.0957C28.3188 35.1997 28.3709 35.3211 28.3709 35.4597C28.3709 35.5984 28.3188 35.737 28.2145 35.8411C28.1103 35.945 27.9886 35.997 27.8496 35.997C27.7106 35.997 27.5716 35.945 27.4847 35.8411C27.3805 35.737 27.3284 35.6157 27.3284 35.4597C27.3284 35.3211 27.3805 35.1997 27.4847 35.0957C27.589 34.9917 27.7106 34.9398 27.8496 34.9398ZM27.8496 35.0091C27.728 35.0091 27.6237 35.0611 27.5369 35.1477C27.45 35.2344 27.3979 35.3384 27.3979 35.4597C27.3979 35.5811 27.45 35.685 27.5369 35.789C27.6237 35.8757 27.728 35.9277 27.8496 35.9277C27.9712 35.9277 28.0755 35.8757 28.1624 35.789C28.2493 35.7024 28.3014 35.5984 28.3014 35.4597C28.3014 35.3384 28.2493 35.2344 28.1624 35.1477C28.0929 35.0611 27.9712 35.0091 27.8496 35.0091ZM11.6902 29.0814C12.4721 29.0814 13.115 29.272 13.4973 29.6707C13.8274 30 13.9491 30.3813 13.9491 30.832C13.9491 31.6119 13.5668 32.0626 13.0455 32.3225C13.8274 32.6518 14.3313 33.1025 14.3313 34.0038C14.3313 35.1824 13.3756 35.841 11.9161 35.8757H11.7597H8.52783V29.064H11.6902V29.0814ZM18.1366 29.0814C18.9185 29.0814 19.5614 29.272 19.9437 29.6707C20.2738 30 20.3955 30.3813 20.3955 30.832C20.3955 31.6119 20.0132 32.0626 19.4919 32.3225C20.2738 32.6518 20.7777 33.1025 20.7777 34.0038C20.7777 35.1824 19.8221 35.841 18.3625 35.8757H18.2061H14.9742V29.064H18.1366V29.0814ZM24.6004 29.0814C25.3823 29.0814 26.0252 29.272 26.4074 29.6707C26.7376 30 26.8592 30.3813 26.8592 30.832C26.8592 31.6119 26.477 32.0626 25.9557 32.3225C26.7376 32.6518 27.2415 33.1025 27.2415 34.0038C27.2415 35.1824 26.2858 35.841 24.8263 35.8757H24.6699H21.438V29.064H24.6004V29.0814ZM27.8496 35.1824C27.9191 35.1824 27.9712 35.1824 28.006 35.1997C28.0582 35.2171 28.0929 35.2691 28.0929 35.3384C28.0929 35.3904 28.0755 35.425 28.0408 35.4597C28.0234 35.477 27.9886 35.477 27.9539 35.4944C28.006 35.4944 28.0234 35.529 28.0582 35.5464C28.0755 35.5811 28.0929 35.5984 28.0929 35.633V35.6677C28.0929 35.685 28.0929 35.7024 28.0929 35.7024C28.0929 35.7197 28.0929 35.7197 28.0929 35.737H28.006V35.7197V35.6677C28.006 35.5984 27.9886 35.5637 27.9539 35.529C27.9365 35.5117 27.9018 35.5117 27.8323 35.5117H27.7454V35.737H27.6411V35.1651H27.8496V35.1824ZM11.7597 33.1025H9.95264V34.5931H11.7597C12.4026 34.5931 12.8544 34.3331 12.8544 33.8825C12.8544 33.4318 12.5243 33.1025 11.7597 33.1025ZM18.2061 33.1025H16.399V34.5931H18.2061C18.849 34.5931 19.3008 34.3331 19.3008 33.8825C19.3008 33.4318 18.988 33.1025 18.2061 33.1025ZM24.6004 33.1025H22.8628V34.5931H24.6525C25.2954 34.5931 25.6777 34.3331 25.6777 33.8825C25.695 33.4318 25.3649 33.1025 24.6004 33.1025ZM11.4991 30.4506H9.95264V31.8719H11.3774C12.0204 31.8719 12.4721 31.6812 12.4721 31.1613C12.4721 30.7106 12.142 30.4506 11.4991 30.4506ZM17.9455 30.4506H16.399V31.8719H17.8238C18.4667 31.8719 18.9185 31.6812 18.9185 31.1613C18.9185 30.7106 18.5884 30.4506 17.9455 30.4506ZM24.3918 30.4506H22.9149V31.8719H24.2702C24.9131 31.8719 25.3649 31.6812 25.3649 31.1613C25.3649 30.7106 25.0348 30.4506 24.3918 30.4506ZM23.6273 24.6096L24.0617 25.9788H20.9862L20.4128 27.9201H15.3217L14.7483 25.9788H11.6728L12.1072 24.6096H23.6273ZM15.4086 14.6781L15.8083 15.0074C15.8083 15.0074 15.4086 15.562 15.9473 16.082L16.0341 16.1513L18.6405 18.0405C19.1444 18.4392 19.4919 18.9765 19.6657 19.5658C19.7178 19.7392 19.8916 20.5884 19.5788 21.4031C19.5267 21.5244 19.4572 21.6457 19.405 21.767L19.3008 21.9404L17.8238 23.9509L17.4068 23.6043C17.4242 23.587 17.4416 23.5696 17.4416 23.5523C17.4589 23.5176 17.4763 23.5003 17.4937 23.4656C17.5806 23.3096 17.5806 23.1537 17.5458 23.0496C17.5458 23.015 17.5285 22.9977 17.5285 22.963V22.9457C17.5285 22.9283 17.5111 22.911 17.4937 22.8937L17.4763 22.859L17.4589 22.8243L17.4242 22.7723C17.3721 22.7203 17.3199 22.6683 17.2678 22.6163L17.2331 22.5817L14.5398 20.6578C13.9664 20.2071 13.5668 19.5485 13.4452 18.8379C13.4278 18.6992 13.4278 18.5432 13.4278 18.4046C13.4278 17.8326 13.5494 17.3126 13.8448 16.8446L13.9491 16.6886L15.009 15.2674L15.4086 14.6781ZM17.8238 5.56116L18.154 5.82115C17.9628 6.08115 17.8934 6.41046 17.9628 6.72245C18.015 6.99977 18.1713 7.2424 18.3799 7.41574L18.4667 7.48506L22.6543 10.5356C23.5578 11.1769 24.0791 12.0955 24.2702 13.1355C24.444 14.1061 24.2355 15.1287 23.6794 15.9607L23.5578 16.1166L20.7777 19.9471L20.3955 19.6698C20.3955 19.6698 20.5866 19.4098 20.6908 19.0459L20.7256 18.9418L20.7603 18.8032C20.7951 18.6299 20.7951 18.4565 20.7951 18.2832L20.7777 18.1619V18.1272C20.7603 17.9886 20.7256 17.8672 20.6734 17.7286C20.6734 17.7112 20.6734 17.7112 20.6561 17.6939C20.5345 17.3819 20.3085 17.0873 20.0479 16.862L19.9263 16.7753L16.4512 14.2447C15.5476 13.6034 15.0264 12.6848 14.8352 11.6449C14.7657 11.4542 14.7657 11.1942 14.7657 11.0036C14.7657 10.2236 14.9742 9.51295 15.4086 8.85432L15.5302 8.68101L17.8238 5.56116Z" fill="#B8B7BA"/>
<path d="M5.28728 1.62238H81.77C82.7661 1.62238 83.5027 1.62276 84.0678 1.7531C84.6299 1.88273 85.0065 2.13794 85.2924 2.6281C85.5781 3.11825 85.7268 3.76439 85.8023 4.72862C85.8783 5.69805 85.8785 6.9616 85.8785 8.67059V32.8875C85.8785 34.5965 85.8783 35.8601 85.8023 36.8295C85.7268 37.7938 85.5781 38.4397 85.2924 38.9302C85.0065 39.4203 84.6299 39.6755 84.0678 39.8049C83.5027 39.9354 82.7661 39.9358 81.77 39.9358H5.28728C4.29107 39.9358 3.55452 39.9354 2.98941 39.8049C2.42734 39.6755 2.05069 39.4203 1.76497 38.9302C1.47925 38.4397 1.33048 37.7938 1.25491 36.8295C1.17893 35.8601 1.17871 34.5965 1.17871 32.8875V8.67059C1.17871 6.9616 1.17893 5.69805 1.25491 4.72862C1.33048 3.76439 1.47925 3.11825 1.76497 2.6281C2.05069 2.13794 2.42734 1.88273 2.98941 1.7531C3.55452 1.62276 4.29107 1.62238 5.28728 1.62238Z" stroke="#B8B7BA"/>
<path d="M35.6836 1.51852V39.988" stroke="#B8B7BA"/>
</svg>
